<svg
   width="79.375mm"
   height="53.122169mm"
   viewBox="0 0 79.375 53.122169"
   version="1.1"
   id="svg1"
   xmlns="http://www.w3.org/2000/svg"
   xmlns:svg="http://www.w3.org/2000/svg">
  <defs
     id="defs1" />
  <g
     id="layer1"
     transform="translate(-70.630149,-116.24521)">
    <path
       style="fill:#ffffff;stroke-width:0.264583"
       d="m 74.951679,168.99496 -4.32153,-0.11097 v -25.74193 -25.74192 h 8.81944 8.81945 v 1.44051 c 0,0.79228 0.11906,1.38076 0.26458,1.30774 6.69246,-3.35842 10.86887,-4.32761 16.132301,-3.74371 3.26298,0.36198 5.83723,1.42644 7.85233,3.24696 l 1.41037,1.27419 3.0608,-1.43434 c 4.7423,-2.22232 9.08356,-3.21679 13.96573,-3.19919 6.69642,0.0241 10.99528,1.47259 13.97969,4.7103 3.59252,3.89742 5.07031,10.0278 5.07031,21.03335 0,5.39203 -0.007,5.44148 -1.09223,7.47717 -1.63103,3.06013 -4.0614,5.89286 -7.25531,8.45648 -2.61547,2.09932 -7.966,5.29166 -8.86909,5.29166 -0.25694,0 -0.4189,-4.16022 -0.5116,-13.14098 -0.14845,-14.38071 -0.22631,-14.98675 -2.20239,-17.14303 -1.16733,-1.27378 -1.21572,-1.2896 -3.94297,-1.2896 -1.61727,0 -3.76128,0.27568 -5.17536,0.66546 l -2.41423,0.66546 0.24102,1.09843 c 0.13257,0.60413 0.31982,8.35478 0.41611,17.22367 l 0.17508,16.12525 -0.8241,0.1917 c -2.30524,0.53622 -8.68821,1.2948 -12.53597,1.48981 l -4.33951,0.21994 v -14.14003 c 0,-14.78882 -0.26779,-18.65276 -1.45384,-20.97762 -1.091481,-2.13947 -2.473881,-2.81134 -5.425331,-2.63678 -1.3582,0.0803 -3.38226,0.4368 -4.49792,0.79216 l -2.02847,0.64612 v 18.10363 18.10364 l -4.49792,-0.0763 c -2.47385,-0.042 -6.4426,-0.12622 -8.81944,-0.18725 z"
       id="path1" />
  </g>
</svg>
