<svg
   width="136.2757mm"
   height="25.573044mm"
   viewBox="0 0 136.2757 25.573044"
   version="1.1"
   id="svg1"
   xmlns="http://www.w3.org/2000/svg"
   xmlns:svg="http://www.w3.org/2000/svg">
  <defs
     id="defs1">
    <rect
       x="417.10315"
       y="481.49802"
       width="515.159"
       height="178.54942"
       id="rect1" />
  </defs>
  <g
     id="layer1"
     transform="translate(-30.278073,-126.31304)">
    <path
       style="fill:#ffffff;stroke-width:0.125722"
       d="m 32.33154,151.37816 -2.053465,-0.0527 v -12.23182 -12.23182 h 4.190742 4.190746 v 0.68449 c 0,0.37647 0.05657,0.6561 0.125721,0.6214 3.180063,-1.59582 5.164572,-2.05635 7.665599,-1.7789 1.550473,0.172 2.773682,0.6778 3.731199,1.54286 l 0.670167,0.60546 1.454403,-0.68156 c 2.253404,-1.05598 4.316245,-1.52852 6.63611,-1.52016 3.181944,0.0114 5.224638,0.69973 6.642743,2.2382 1.707061,1.85194 2.409264,4.76492 2.409264,9.99444 0,2.56213 -0.0033,2.58563 -0.518996,3.55293 -0.775018,1.45409 -1.929859,2.80012 -3.447513,4.01827 -1.242795,0.99754 -3.785212,2.51445 -4.214334,2.51445 -0.12209,0 -0.199049,-1.97682 -0.243097,-6.24421 -0.07054,-6.8333 -0.107536,-7.12127 -1.046512,-8.14587 -0.554681,-0.60527 -0.577675,-0.61279 -1.873585,-0.61279 -0.76848,0 -1.787251,0.131 -2.459181,0.31621 l -1.147172,0.31621 0.114526,0.52194 c 0.06299,0.28707 0.151969,3.96995 0.197723,8.18419 l 0.08319,7.66225 -0.391588,0.0911 c -1.095383,0.2548 -4.128385,0.61525 -5.956729,0.70791 l -2.062007,0.10451 v -6.71893 c 0,-7.02722 -0.127246,-8.86325 -0.690823,-9.96795 -0.51864,-1.01662 -1.175516,-1.33587 -2.57796,-1.25293 -0.645377,0.0382 -1.607151,0.20756 -2.137281,0.37642 l -0.96387,0.30701 v 8.60232 8.60233 l -2.137281,-0.0363 c -1.175501,-0.02 -3.061336,-0.06 -4.190742,-0.089 z"
       id="path1" />
    <text
       xml:space="preserve"
       transform="matrix(0.36188103,0,0,0.36188103,-82.433173,-65.531999)"
       id="text1"
       style="font-size:133.333px;text-align:start;writing-mode:lr-tb;direction:ltr;white-space:pre;shape-inside:url(#rect1);fill:#ffffff"><tspan
         x="417.10352"
         y="599.4665"
         id="tspan3"><tspan
           style="font-weight:600;font-family:Cairo;-inkscape-font-specification:'Cairo Semi-Bold';baseline-shift:baseline"
           id="tspan2">uvon</tspan></tspan></text>
  </g>
</svg>
